<?xml version="1.0" encoding="utf-8"?>
<!-- Generator: Adobe Illustrator 25.0.1, SVG Export Plug-In . SVG Version: 6.00 Build 0)  -->
<svg version="1.1" id="Layer_1" xmlns="http://www.w3.org/2000/svg" xmlns:xlink="http://www.w3.org/1999/xlink" x="0px" y="0px"
	 viewBox="0 0 226.3 235" style="enable-background:new 0 0 226.3 235;" xml:space="preserve">
<style type="text/css">
	.st0{fill:#36A2EB;}
	.st1{fill:#FFCE56;}
	.st2{opacity:0.8;fill:#FE6184;enable-background:new    ;}
	.st3{fill:#E7E9ED;}
	.st4{enable-background:new    ;}
	.st5{fill:#724C35;}
	.st6{fill:#A9704E;}
	.st7{fill:#BD7E58;}
	.st8{clip-path:url(#SVGID_2_);enable-background:new    ;}
	.st9{fill:#A46D4C;}
	.st10{fill:#A06A4A;}
	.st11{fill:#9B6748;}
	.st12{fill:#966446;}
	.st13{fill:#926144;}
	.st14{fill:#8D5E42;}
	.st15{fill:#895B40;}
	.st16{fill:#84583D;}
	.st17{clip-path:url(#SVGID_4_);enable-background:new    ;}
	.st18{fill:#774F37;}
	.st19{fill:#7B5239;}
	.st20{fill:#80553B;}
	.st21{fill:#AD7451;}
	.st22{clip-path:url(#SVGID_6_);enable-background:new    ;}
	.st23{clip-path:url(#SVGID_8_);enable-background:new    ;}
	.st24{fill:#FE777B;}
</style>
<path class="st0" d="M178.4,100.3c-22.4,0.4-17.7,14.6-33.5,18.2c-16,3.6-18.5-39.1-34.6-39.1c-16,0-19.6,41.5-39.6,70l-0.6,0.8
	l43,24.8l65.2-37.7L178.4,100.3L178.4,100.3z"/>
<path class="st1" d="M178.4,99c-7.5-9.6-12.6-20.7-23.5-20.7c-19.3,0-14.2,31.5-35.6,31.5s-23.6-33.9-47.8-2
	C63.8,118,57.6,129.3,52.7,140l60.5,34.9l65.2-37.7V99z"/>
<path class="st2" d="M47.9,112c7.4-20.3,10.5-36.7,24.5-36.7c21.4,0,26.5,60,44.8,53.9c18.3-6.1,16.3-38.7,44.8-38.7
	c5.4,0,11,3.3,16.4,8.7v38.1L113.2,175L48,137.3L47.9,112L47.9,112z"/>
<path class="st3" d="M113.1,179.7l-69.3-40v-80l69.3-40l69.3,40v80L113.1,179.7z M51.9,135l61.2,35.3l61.2-35.3V64.4l-61.2-35.3
	L51.9,64.4V135z"/>
<g>
	<g>
		<g class="st4">
			<g>
				<polygon class="st5" points="96.5,60.5 96.5,64.9 93.8,62.1 93.8,57.7 				"/>
			</g>
			<g>
				<polygon class="st6" points="83,66.1 83,70.4 76.9,70.6 76.9,66.2 				"/>
			</g>
			<g>
				<polygon class="st6" points="76.9,66.2 76.9,70.6 63.7,70.9 63.7,66.6 				"/>
			</g>
			<g>
				<polygon class="st5" points="63.7,66.6 63.7,70.9 63.3,67.5 63.3,63.2 				"/>
			</g>
			<g>
				<polygon class="st6" points="90.5,76.1 90.5,80.4 84.1,80.6 84.1,76.2 				"/>
			</g>
			<g>
				<polygon class="st5" points="84.1,76.2 84.1,80.6 83.1,71.3 83.1,67 				"/>
			</g>
			<g>
				<polygon class="st7" points="89,62.5 90.5,76.1 84.1,76.2 83.1,67 83,66.1 76.9,66.2 63.7,66.6 63.3,63.2 				"/>
			</g>
			<g class="st4">
				<g>
					<defs>
						<path id="SVGID_1_" d="M77.6,81.4v-4.3c0-3.6,1.9-7.1,5.5-10v4.3C79.4,74.3,77.6,77.8,77.6,81.4z"/>
					</defs>
					<clipPath id="SVGID_2_">
						<use xlink:href="#SVGID_1_"  style="overflow:visible;"/>
					</clipPath>
					<g class="st8">
						<path class="st9" d="M83.1,67v4.3c-0.1,0.1-0.2,0.2-0.3,0.2v-4.3C82.9,67.1,83,67.1,83.1,67"/>
						<path class="st10" d="M82.8,67.2v4.3c-0.6,0.5-1.2,1-1.7,1.6v-4.3C81.6,68.3,82.2,67.7,82.8,67.2"/>
						<path class="st11" d="M81.1,68.8v4.3c-0.5,0.5-0.9,1-1.3,1.5v-4.3C80.2,69.8,80.7,69.3,81.1,68.8"/>
						<path class="st12" d="M79.9,70.3v4.4c-0.4,0.5-0.7,1-1,1.5v-4.3C79.2,71.3,79.5,70.8,79.9,70.3"/>
						<path class="st13" d="M78.9,71.9v4.3c-0.3,0.5-0.5,1-0.7,1.6v-4.3C78.4,72.9,78.6,72.4,78.9,71.9"/>
						<path class="st14" d="M78.2,73.4v4.3c-0.2,0.5-0.3,1.1-0.5,1.6V75C77.8,74.5,78,74,78.2,73.4"/>
						<path class="st15" d="M77.7,75.1v4.3c-0.1,0.6-0.2,1.2-0.2,1.7v-4.3C77.6,76.2,77.6,75.6,77.7,75.1"/>
						<path class="st16" d="M77.6,76.8v4.3c0,0.1,0,0.2,0,0.2V77C77.6,76.9,77.6,76.9,77.6,76.8"/>
					</g>
				</g>
			</g>
			<g class="st4">
				<g>
					<defs>
						<path id="SVGID_3_" d="M148.7,77.3v4.3c0-0.4,0-0.7-0.1-1.1c-1.1-10-16.8-17.8-35.7-17.8c-0.6,0-1.2,0-1.8,0
							c-5.2,0.1-10.2,0.8-14.7,2.1v-4.3c4.5-1.3,9.5-1.9,14.7-2.1c0.6,0,1.2,0,1.8,0c18.9,0,34.6,7.8,35.7,17.8
							C148.7,76.6,148.7,76.9,148.7,77.3z"/>
					</defs>
					<clipPath id="SVGID_4_">
						<use xlink:href="#SVGID_3_"  style="overflow:visible;"/>
					</clipPath>
					<g class="st17">
						<path class="st18" d="M148.7,77.3v4.3c0-0.4,0-0.7-0.1-1.1c-0.6-5.7-5.9-10.6-13.9-13.9v-4.3c7.9,3.2,13.3,8.2,13.9,13.9
							C148.7,76.6,148.7,76.9,148.7,77.3"/>
						<path class="st19" d="M134.8,62.3v4.4c-1.2-0.5-2.4-0.9-3.7-1.3v-4.3C132.4,61.4,133.6,61.9,134.8,62.3"/>
						<path class="st20" d="M131.1,61v4.3c-1-0.3-2.1-0.6-3.1-0.9v-4.3C129,60.4,130.1,60.7,131.1,61"/>
						<path class="st16" d="M128,60.1v4.3c-0.9-0.2-1.9-0.4-2.9-0.6v-4.3C126,59.7,127,59.9,128,60.1"/>
						<path class="st15" d="M125.1,59.5v4.3c-0.9-0.2-1.8-0.3-2.8-0.5V59C123.2,59.2,124.1,59.3,125.1,59.5"/>
						<path class="st14" d="M122.3,59.1v4.3c-0.9-0.1-1.8-0.2-2.7-0.3v-4.4C120.5,58.8,121.4,58.9,122.3,59.1"/>
						<path class="st13" d="M119.5,58.7V63c-0.9-0.1-1.8-0.2-2.8-0.2v-4.3C117.7,58.6,118.6,58.6,119.5,58.7"/>
						<path class="st12" d="M116.7,58.5v4.3c-1-0.1-1.9-0.1-2.9-0.1v-4.3C114.8,58.4,115.8,58.5,116.7,58.5"/>
						<path class="st11" d="M113.9,58.4v4.3c-0.3,0-0.6,0-0.9,0c-0.6,0-1.2,0-1.8,0c-0.1,0-0.3,0-0.4,0v-4.3c0.1,0,0.3,0,0.4,0
							c0.6,0,1.2,0,1.8,0C113.3,58.4,113.6,58.4,113.9,58.4"/>
						<path class="st10" d="M110.7,58.5v4.3c-1.2,0-2.4,0.1-3.6,0.2v-4.3C108.3,58.6,109.5,58.5,110.7,58.5"/>
						<path class="st9" d="M107.1,58.7V63c-1.3,0.1-2.6,0.3-3.9,0.4v-4.3C104.5,58.9,105.8,58.8,107.1,58.7"/>
						<path class="st6" d="M103.2,59.1v4.3c-2,0.3-3.9,0.7-5.7,1.2v-4.3C99.3,59.8,101.2,59.4,103.2,59.1"/>
						<path class="st21" d="M97.5,60.3v4.3c-0.3,0.1-0.7,0.2-1,0.3v-4.3C96.8,60.4,97.1,60.3,97.5,60.3"/>
					</g>
				</g>
			</g>
			<g class="st4">
				<g>
					<defs>
						<path id="SVGID_5_" d="M154.8,77.3v4.3c0,3.8-1.9,7.5-5.5,10.8v-4.3C152.9,84.8,154.8,81.1,154.8,77.3z"/>
					</defs>
					<clipPath id="SVGID_6_">
						<use xlink:href="#SVGID_5_"  style="overflow:visible;"/>
					</clipPath>
					<g class="st22">
						<path class="st16" d="M154.8,77.3v4.3c0,0.1,0,0.2,0,0.3v-4.3C154.8,77.5,154.8,77.4,154.8,77.3"/>
						<path class="st15" d="M154.8,77.5v4.3c0,0.7-0.1,1.3-0.2,1.9v-4.3C154.7,78.8,154.8,78.2,154.8,77.5"/>
						<path class="st14" d="M154.6,79.5v4.3c-0.1,0.6-0.3,1.2-0.5,1.9v-4.3C154.3,80.7,154.4,80.1,154.6,79.5"/>
						<path class="st13" d="M154,81.4v4.3c-0.2,0.6-0.5,1.2-0.8,1.8v-4.3C153.5,82.6,153.8,82,154,81.4"/>
						<path class="st12" d="M153.2,83.2v4.3c-0.3,0.6-0.7,1.2-1.1,1.8V85C152.5,84.4,152.9,83.8,153.2,83.2"/>
						<path class="st11" d="M152.1,85v4.3c-0.5,0.6-1,1.3-1.5,1.9v-4.3C151.1,86.3,151.6,85.6,152.1,85"/>
						<path class="st10" d="M150.5,86.9v4.3c-0.4,0.4-0.8,0.8-1.2,1.2v-4.3C149.7,87.7,150.1,87.3,150.5,86.9"/>
					</g>
				</g>
			</g>
			<g>
				<polygon class="st6" points="149.3,88.1 149.3,92.4 143.3,92.6 143.3,88.2 				"/>
			</g>
			<g>
				<polygon class="st5" points="143.3,88.2 143.3,92.6 143.2,91.6 143.2,87.3 				"/>
			</g>
			<g>
				<path class="st7" d="M112.9,55.2c22,0,40.5,9.1,41.8,20.8c0.5,4.2-1.5,8.4-5.4,12l-6,0.2l-0.1-0.9c4-3.2,5.9-7.1,5.5-11.1
					c-1.1-10-16.8-17.8-35.7-17.8c-0.6,0-1.2,0-1.8,0c-5.2,0.1-10.2,0.8-14.7,2.1l-2.7-2.8c5.3-1.4,11-2.3,17.1-2.5
					C111.5,55.3,112.2,55.2,112.9,55.2z"/>
			</g>
			<g>
				<polygon class="st6" points="163,91.1 163,95.4 137.3,96.1 137.3,91.8 				"/>
			</g>
			<g>
				<polygon class="st5" points="137.3,91.8 137.3,96.1 135.8,82.6 135.8,78.3 				"/>
			</g>
			<g>
				<polygon class="st7" points="142.2,78.1 143.2,87.3 143.3,88.2 149.3,88.1 162.6,87.7 163,91.1 137.3,91.8 135.8,78.3 				"/>
			</g>
			<g>
				<path class="st7" d="M83,66.1l0.1,0.9c-4,3.3-5.9,7.2-5.5,11.1c1.1,10,16.8,17.8,35.7,17.8c0.6,0,1.2,0,1.8,0
					c5.2-0.1,10.2-0.8,14.7-2.1l2.7,2.8c-5.3,1.5-11,2.3-17.1,2.5c-0.7,0-1.4,0-2.1,0c-22,0-40.5-9.1-41.8-20.8
					c-0.4-4.2,1.4-8.4,5.4-12L83,66.1z"/>
			</g>
			<g class="st4">
				<g>
					<defs>
						<path id="SVGID_7_" d="M71.5,81.4v-4.3c0,0.4,0,0.8,0.1,1.2c1.2,11.7,19.8,20.8,41.8,20.8c0.7,0,1.4,0,2.1,0
							c6-0.2,11.8-0.9,17.1-2.5v4.3c-5.3,1.5-11,2.3-17.1,2.5c-0.7,0-1.4,0-2.1,0c-22,0-40.5-9.1-41.8-20.8
							C71.5,82.2,71.5,81.8,71.5,81.4z"/>
					</defs>
					<clipPath id="SVGID_8_">
						<use xlink:href="#SVGID_7_"  style="overflow:visible;"/>
					</clipPath>
					<g class="st23">
						<path class="st21" d="M132.5,96.6v4.3c-0.4,0.1-0.9,0.2-1.3,0.4V97C131.7,96.8,132.1,96.7,132.5,96.6"/>
						<path class="st6" d="M131.2,96.9v4.3c-2.2,0.6-4.4,1-6.7,1.4v-4.3C126.8,98,129,97.5,131.2,96.9"/>
						<path class="st9" d="M124.5,98.3v4.3c-1.5,0.2-3,0.4-4.5,0.5v-4.3C121.5,98.7,123,98.5,124.5,98.3"/>
						<path class="st10" d="M120,98.8v4.3c-1.3,0.1-2.7,0.2-4,0.2V99C117.3,99,118.6,98.9,120,98.8"/>
						<path class="st11" d="M115.9,99v4.3c-0.2,0-0.3,0-0.5,0c-0.7,0-1.4,0-2.1,0c-0.3,0-0.7,0-1,0V99c0.3,0,0.7,0,1,0
							c0.7,0,1.4,0,2.1,0C115.6,99,115.8,99,115.9,99"/>
						<path class="st12" d="M112.4,99.1v4.3c-1.1,0-2.2-0.1-3.3-0.1V99C110.1,99,111.2,99.1,112.4,99.1"/>
						<path class="st13" d="M109,99v4.3c-1.1-0.1-2.2-0.1-3.2-0.2v-4.4C106.9,98.8,107.9,98.9,109,99"/>
						<path class="st14" d="M105.8,98.7v4.3c-1.1-0.1-2.1-0.2-3.2-0.4v-4.3C103.7,98.5,104.7,98.6,105.8,98.7"/>
						<path class="st15" d="M102.6,98.3v4.4c-1.1-0.2-2.2-0.3-3.3-0.5v-4.3C100.4,98,101.5,98.2,102.6,98.3"/>
						<path class="st16" d="M99.4,97.8v4.3c-1.2-0.2-2.3-0.5-3.4-0.7v-4.3C97.1,97.3,98.2,97.6,99.4,97.8"/>
						<path class="st20" d="M96,97.1v4.3c-1.3-0.3-2.5-0.6-3.7-1v-4.3C93.5,96.4,94.7,96.8,96,97.1"/>
						<path class="st19" d="M92.3,96v4.3c-1.5-0.5-3-1-4.4-1.6v-4.3C89.3,95,90.7,95.6,92.3,96"/>
						<path class="st18" d="M87.9,94.5v4.3c-9.3-3.8-15.6-9.6-16.3-16.2c0-0.4-0.1-0.8-0.1-1.2v-4.3c0,0.4,0,0.8,0.1,1.2
							C72.3,84.9,78.6,90.7,87.9,94.5"/>
					</g>
				</g>
			</g>
		</g>
	</g>
</g>
<g>
	<path class="st24" d="M10.8,203.9c-0.6-0.3-1-0.7-1.3-1.3S9,201.3,9,200.4v-1.5c0-0.9,0.1-1.6,0.4-2.2s0.7-1,1.3-1.3
		c0.6-0.3,1.3-0.4,2.2-0.4c0.5,0,1,0.1,1.4,0.2s0.8,0.3,1.1,0.5c0.3,0.2,0.6,0.5,0.8,0.8l-0.9,0.8c-0.3-0.4-0.7-0.7-1.1-0.8
		c-0.4-0.2-0.8-0.3-1.3-0.3c-0.9,0-1.6,0.2-2,0.7c-0.4,0.5-0.7,1.1-0.7,2.1v1.5c0,0.9,0.2,1.6,0.7,2.1s1.1,0.7,2,0.7
		c0.5,0,1-0.1,1.4-0.3s0.8-0.4,1.1-0.8l0.8,0.8c-0.2,0.3-0.5,0.6-0.8,0.8s-0.7,0.4-1.1,0.5s-0.9,0.2-1.4,0.2
		C12.1,204.4,11.3,204.2,10.8,203.9z"/>
	<path class="st24" d="M18.2,191.4h1.3v12.8h-1.3V191.4z M24.3,198.7c0-0.8-0.2-1.4-0.6-1.9s-1-0.7-1.8-0.7c-0.8,0-1.3,0.2-1.7,0.6
		c-0.4,0.4-0.6,1-0.6,1.7l-0.2-1.8c0.3-0.6,0.8-1,1.3-1.3c0.5-0.3,1.2-0.4,1.9-0.4c1,0,1.8,0.3,2.3,1s0.8,1.6,0.8,2.7v5.5h-1.3
		V198.7z"/>
	<path class="st24" d="M28.7,203.6c-0.6-0.5-0.9-1.2-0.9-2.1c0-0.9,0.3-1.5,0.8-2c0.5-0.5,1.3-0.7,2.3-0.7h3l0.1,1.2h-3.1
		c-0.6,0-1,0.1-1.4,0.4s-0.5,0.6-0.5,1.1c0,0.5,0.2,0.9,0.6,1.2c0.4,0.3,1,0.4,1.7,0.4c0.8,0,1.4-0.1,1.8-0.2s0.7-0.4,0.7-0.7
		l0.2,1.2c-0.2,0.2-0.4,0.4-0.7,0.5s-0.6,0.2-1,0.3s-0.8,0.1-1.2,0.1C30.1,204.4,29.3,204.1,28.7,203.6z M33.9,198.4
		c0-0.7-0.2-1.3-0.6-1.7c-0.4-0.4-1-0.6-1.7-0.6c-0.4,0-0.9,0.1-1.3,0.2s-0.8,0.3-1.1,0.6l-0.9-0.6c0.3-0.4,0.8-0.7,1.4-1
		c0.6-0.2,1.2-0.3,1.9-0.3c0.8,0,1.4,0.1,1.9,0.4c0.5,0.3,0.9,0.7,1.2,1.2c0.3,0.5,0.4,1.1,0.4,1.8v5.9h-1.3V198.4z"/>
	<path class="st24" d="M37.9,195.1h1.3v9.1h-1.3V195.1z M42.5,196.3c-0.3-0.1-0.6-0.1-1-0.1c-0.8,0-1.4,0.2-1.8,0.6
		c-0.4,0.4-0.6,1-0.6,1.7l-0.2-1.8c0.3-0.5,0.8-1,1.3-1.3c0.5-0.3,1.1-0.5,1.8-0.5c0.4,0,0.8,0.1,1.1,0.2s0.6,0.3,0.9,0.5l-0.8,1.1
		C43.1,196.5,42.8,196.4,42.5,196.3z"/>
	<path class="st24" d="M44.9,195.1H49v1.1h-4.1V195.1z M46.3,203.7c-0.3-0.4-0.5-1-0.5-1.8v-9.4h1.3v9.4c0,0.4,0.1,0.7,0.3,0.9
		s0.4,0.3,0.8,0.3H49v1.2h-1C47.2,204.3,46.7,204.1,46.3,203.7z"/>
	<path class="st24" d="M50.2,206.8h1c0.3,0,0.6-0.1,0.8-0.3c0.2-0.2,0.3-0.5,0.3-0.9v-10.4h1.3v10.4c0,0.8-0.2,1.4-0.6,1.8
		s-0.9,0.6-1.6,0.6h-1.2V206.8z M52.2,191.4h1.3v1.3h-1.3V191.4z"/>
	<path class="st24" d="M58,204.2c-0.5-0.1-0.9-0.2-1.3-0.4s-0.8-0.4-1.1-0.7l0.7-0.9c0.5,0.3,1,0.6,1.5,0.8c0.5,0.2,1,0.3,1.5,0.3
		c0.9,0,1.5-0.1,2-0.4s0.7-0.7,0.7-1.3c0-0.4-0.1-0.7-0.3-0.9s-0.5-0.3-0.9-0.4s-0.8-0.1-1.5-0.2c-0.1,0-0.1,0-0.2,0s-0.1,0-0.2,0
		c0,0,0,0-0.1,0s0,0-0.1,0c-0.6-0.1-1.1-0.1-1.5-0.3s-0.7-0.3-1-0.7s-0.4-0.8-0.4-1.4c0-0.6,0.1-1.1,0.4-1.5s0.7-0.7,1.2-0.9
		s1.2-0.3,2-0.3c0.4,0,0.8,0,1.2,0.1c0.4,0.1,0.8,0.2,1.1,0.3c0.4,0.1,0.7,0.3,1,0.5l-0.7,0.9c-0.4-0.3-0.9-0.4-1.4-0.6
		s-0.9-0.2-1.3-0.2c-0.8,0-1.4,0.1-1.8,0.4s-0.6,0.7-0.6,1.2c0,0.4,0.1,0.6,0.3,0.8s0.5,0.3,0.9,0.4s0.8,0.1,1.4,0.1c0,0,0,0,0.1,0
		c0,0,0.1,0,0.1,0c0,0,0,0,0.1,0s0,0,0.1,0c0.6,0,1.2,0.1,1.6,0.2s0.8,0.4,1.1,0.7s0.5,0.9,0.5,1.6c0,0.6-0.2,1.1-0.5,1.5
		s-0.8,0.7-1.3,1c-0.6,0.2-1.3,0.3-2.1,0.3C58.9,204.4,58.4,204.3,58,204.2z"/>
	<path class="st24" d="M71.5,199.1v1.2h-5.9v-1.2H71.5z"/>
	<path class="st24" d="M74.2,195.1h1.3v12.8h-1.3V195.1z M76.5,204c-0.5-0.2-0.9-0.6-1.1-1.2l0.1-1.9c0,0.4,0.1,0.8,0.3,1.1
		c0.2,0.4,0.5,0.7,0.8,0.9s0.8,0.3,1.2,0.3c0.8,0,1.4-0.2,1.8-0.7s0.6-1.1,0.6-1.9v-2c0-0.8-0.2-1.5-0.6-1.9s-1-0.7-1.8-0.7
		c-0.5,0-0.9,0.1-1.2,0.3s-0.6,0.5-0.8,0.9s-0.3,0.7-0.3,1.1l-0.2-1.8c0.3-0.6,0.7-1,1.3-1.3s1.1-0.4,1.8-0.4c0.6,0,1.2,0.1,1.7,0.4
		c0.5,0.3,0.8,0.7,1.1,1.3s0.4,1.2,0.4,2v2c0,0.8-0.1,1.4-0.4,2s-0.6,1-1.1,1.3c-0.5,0.3-1,0.4-1.7,0.4
		C77.6,204.4,76.9,204.2,76.5,204z"/>
	<path class="st24" d="M85.3,201.8c0,0.4,0.1,0.7,0.3,0.9s0.5,0.3,0.8,0.3h0.8v1.2h-1.1c-0.7,0-1.2-0.2-1.6-0.6s-0.6-1-0.6-1.8
		v-10.4h1.3V201.8z"/>
	<path class="st24" d="M90.5,200.6c0,0.8,0.2,1.4,0.6,1.9s1,0.7,1.8,0.7c0.8,0,1.3-0.2,1.8-0.6s0.6-1,0.6-1.7l0.1,1.9
		c-0.2,0.5-0.6,0.8-1.1,1.1s-1.1,0.5-1.9,0.5c-1,0-1.8-0.3-2.3-1c-0.5-0.6-0.8-1.6-0.8-2.7v-5.5h1.3V200.6z M95.2,195.1h1.3v9.1
		h-1.3V195.1z"/>
	<path class="st24" d="M100.4,203.9c-0.5-0.3-0.8-0.7-1.1-1.3s-0.4-1.2-0.4-2v-2c0-0.8,0.1-1.5,0.4-2s0.6-1,1-1.3
		c0.5-0.3,1-0.4,1.7-0.4c0.7,0,1.3,0.1,1.8,0.4s0.9,0.7,1.3,1.3l-0.2,1.8c0-0.4-0.1-0.8-0.3-1.1s-0.5-0.6-0.8-0.9s-0.8-0.3-1.2-0.3
		c-0.8,0-1.4,0.2-1.8,0.7s-0.6,1.1-0.6,1.9v2c0,0.8,0.2,1.5,0.6,1.9s1,0.7,1.8,0.7c0.5,0,0.9-0.1,1.2-0.3s0.6-0.5,0.8-0.9
		c0.2-0.4,0.3-0.7,0.3-1.1l0.1,1.9c-0.2,0.6-0.6,1-1.1,1.2c-0.5,0.2-1.1,0.4-1.9,0.4C101.5,204.4,100.9,204.2,100.4,203.9z
		 M100.4,207.6c-0.5-0.3-1-0.6-1.3-1.1l0.9-0.8c0.3,0.4,0.6,0.6,1,0.8s0.8,0.3,1.2,0.3c0.8,0,1.5-0.2,2-0.7c0.5-0.5,0.7-1.1,0.7-2
		v-9h1.3v8.9c0,0.8-0.2,1.6-0.5,2.2s-0.8,1.1-1.3,1.4s-1.3,0.5-2.1,0.5C101.6,207.9,101,207.8,100.4,207.6z"/>
	<path class="st24" d="M109.2,191.4h1.3v1.3h-1.3V191.4z M109.2,195.1h1.3v9.1h-1.3V195.1z"/>
	<path class="st24" d="M113.5,195.1h1.3v9.1h-1.3V195.1z M119.5,198.7c0-0.8-0.2-1.4-0.6-1.9s-1-0.7-1.8-0.7c-0.8,0-1.3,0.2-1.7,0.6
		c-0.4,0.4-0.6,1-0.6,1.7l-0.2-1.8c0.3-0.6,0.8-1,1.3-1.3c0.5-0.3,1.2-0.4,1.9-0.4c1,0,1.8,0.3,2.3,1s0.8,1.6,0.8,2.7v5.5h-1.3
		V198.7z"/>
	<path class="st24" d="M129.4,199.1v1.2h-5.9v-1.2H129.4z"/>
	<path class="st24" d="M133.6,203.9c-0.6-0.3-1.1-0.8-1.4-1.4s-0.5-1.4-0.5-2.2V199c0-0.9,0.2-1.6,0.5-2.2c0.3-0.6,0.8-1.1,1.4-1.4
		s1.3-0.5,2.2-0.5c0.5,0,0.9,0.1,1.4,0.2c0.4,0.1,0.8,0.3,1.2,0.5s0.6,0.5,0.9,0.8l-1.4,1.3c-0.2-0.3-0.5-0.4-0.8-0.6
		s-0.7-0.2-1-0.2c-0.7,0-1.2,0.2-1.5,0.5c-0.4,0.4-0.5,0.9-0.5,1.5v1.2c0,0.7,0.2,1.2,0.5,1.5c0.4,0.4,0.9,0.5,1.5,0.5
		c0.4,0,0.7-0.1,1-0.2s0.6-0.4,0.8-0.6l1.4,1.4c-0.2,0.3-0.5,0.6-0.9,0.8c-0.3,0.2-0.7,0.4-1.2,0.5s-0.9,0.2-1.4,0.2
		C135,204.4,134.2,204.2,133.6,203.9z"/>
	<path class="st24" d="M140,195.1h2l2.9,7.9l-1.3,1.9L140,195.1z M148.3,195.1l-4,11.3c-0.1,0.4-0.3,0.7-0.6,1
		c-0.2,0.2-0.5,0.4-0.8,0.5s-0.7,0.2-1.2,0.2h-0.4v-2h0.4c0.3,0,0.5-0.1,0.7-0.2s0.3-0.3,0.5-0.6l3.4-10.1H148.3z"/>
	<path class="st24" d="M151.3,203.9c-0.6-0.3-1.1-0.8-1.4-1.4s-0.5-1.4-0.5-2.2V199c0-0.9,0.2-1.6,0.5-2.2c0.3-0.6,0.8-1.1,1.4-1.4
		s1.3-0.5,2.2-0.5c0.5,0,0.9,0.1,1.4,0.2c0.4,0.1,0.8,0.3,1.2,0.5s0.6,0.5,0.9,0.8l-1.4,1.3c-0.2-0.3-0.5-0.4-0.8-0.6
		s-0.7-0.2-1-0.2c-0.7,0-1.2,0.2-1.5,0.5c-0.4,0.4-0.5,0.9-0.5,1.5v1.2c0,0.7,0.2,1.2,0.5,1.5c0.4,0.4,0.9,0.5,1.5,0.5
		c0.4,0,0.7-0.1,1-0.2s0.6-0.4,0.8-0.6l1.4,1.4c-0.2,0.3-0.5,0.6-0.9,0.8c-0.3,0.2-0.7,0.4-1.2,0.5s-0.9,0.2-1.4,0.2
		C152.6,204.4,151.9,204.2,151.3,203.9z"/>
	<path class="st24" d="M160.8,201.5c0,0.2,0.1,0.4,0.2,0.5s0.3,0.2,0.5,0.2h0.6v2h-1.1c-0.7,0-1.2-0.2-1.6-0.6s-0.6-1-0.6-1.8v-10.4
		h2.1V201.5z"/>
	<path class="st24" d="M163.8,191.4h2.1v2.1h-2.1V191.4z M163.8,195.1h2.1v9.1h-2.1V195.1z"/>
	<path class="st24" d="M170,203.9c-0.6-0.3-1.1-0.8-1.4-1.4s-0.5-1.4-0.5-2.2V199c0-0.9,0.2-1.6,0.5-2.2c0.3-0.6,0.8-1.1,1.4-1.4
		s1.3-0.5,2.2-0.5c0.5,0,0.9,0.1,1.4,0.2c0.4,0.1,0.8,0.3,1.2,0.5s0.6,0.5,0.9,0.8l-1.4,1.3c-0.2-0.3-0.5-0.4-0.8-0.6
		s-0.7-0.2-1-0.2c-0.7,0-1.2,0.2-1.5,0.5c-0.4,0.4-0.5,0.9-0.5,1.5v1.2c0,0.7,0.2,1.2,0.5,1.5c0.4,0.4,0.9,0.5,1.5,0.5
		c0.4,0,0.7-0.1,1-0.2s0.6-0.4,0.8-0.6l1.4,1.4c-0.2,0.3-0.5,0.6-0.9,0.8c-0.3,0.2-0.7,0.4-1.2,0.5s-0.9,0.2-1.4,0.2
		C171.3,204.4,170.6,204.2,170,203.9z"/>
	<path class="st24" d="M183.4,198.6v2h-6.1v-2H183.4z"/>
	<path class="st24" d="M186.3,203.7c-0.5-0.5-0.8-1.2-0.8-2.1c0-0.9,0.3-1.6,0.8-2s1.3-0.7,2.4-0.7h2.4l0.1,1.6h-2.6
		c-0.4,0-0.7,0.1-0.9,0.3s-0.3,0.4-0.3,0.8c0,0.4,0.1,0.7,0.4,0.8c0.3,0.2,0.7,0.3,1.2,0.3c0.7,0,1.2-0.1,1.5-0.2s0.5-0.4,0.5-0.7
		l0.2,1.3c-0.1,0.3-0.3,0.5-0.5,0.7s-0.5,0.3-0.9,0.4c-0.4,0.1-0.7,0.1-1.2,0.1C187.6,204.4,186.9,204.1,186.3,203.7z M191.1,198.4
		c0-0.5-0.2-0.9-0.5-1.2s-0.7-0.4-1.3-0.4c-0.4,0-0.7,0.1-1,0.2s-0.6,0.3-0.9,0.5l-1.4-1.2c0.4-0.4,0.8-0.7,1.4-1
		c0.6-0.2,1.2-0.3,1.9-0.3c0.8,0,1.4,0.1,2,0.4c0.6,0.3,1,0.7,1.3,1.2c0.3,0.5,0.4,1.1,0.4,1.8v5.9h-1.9V198.4z"/>
	<path class="st24" d="M198,199.2l1.1,1.7l-2.2,3.4h-2.3L198,199.2z M198.3,200.3l-3.4-5.2h2.3l2.4,3.9l3.5,5.2h-2.3L198.3,200.3z
		 M198.8,198.3l1.8-3.2h2.3l-3.1,4.9L198.8,198.3z"/>
	<path class="st24" d="M204.8,191.4h2.1v2.1h-2.1V191.4z M204.8,195.1h2.1v9.1h-2.1V195.1z"/>
	<path class="st24" d="M211.2,204.2c-0.5-0.1-1-0.3-1.4-0.5s-0.8-0.4-1.2-0.7l1.3-1.6c0.5,0.3,0.9,0.6,1.4,0.7s1,0.3,1.4,0.3
		c0.6,0,1.1-0.1,1.5-0.3s0.5-0.4,0.5-0.8c0-0.3-0.1-0.4-0.2-0.6s-0.4-0.2-0.6-0.3s-0.6-0.1-1-0.1c-0.1,0-0.2,0-0.2,0s-0.2,0-0.2,0
		c0,0,0,0-0.1,0s0,0-0.1,0c-0.6-0.1-1.2-0.2-1.6-0.3s-0.8-0.4-1-0.7s-0.4-0.9-0.4-1.5c0-0.6,0.1-1.2,0.4-1.6c0.3-0.4,0.7-0.8,1.2-1
		c0.5-0.2,1.2-0.3,2-0.3c0.5,0,0.9,0,1.4,0.1c0.4,0.1,0.9,0.2,1.3,0.4s0.8,0.4,1.2,0.6l-1.3,1.5c-0.4-0.3-0.9-0.5-1.3-0.6
		s-0.9-0.2-1.3-0.2c-0.6,0-1,0.1-1.3,0.2s-0.4,0.4-0.4,0.7c0,0.2,0.1,0.4,0.2,0.5s0.4,0.2,0.6,0.2c0.2,0,0.6,0.1,1,0.1
		c0,0,0.1,0,0.1,0s0.1,0,0.1,0c0,0,0,0,0.1,0s0,0,0.1,0c0.7,0.1,1.2,0.2,1.7,0.3s0.8,0.4,1.1,0.8c0.3,0.4,0.5,0.9,0.5,1.7
		c0,0.6-0.1,1.2-0.4,1.6c-0.3,0.4-0.7,0.8-1.3,1c-0.6,0.2-1.3,0.3-2.1,0.3C212.2,204.4,211.7,204.3,211.2,204.2z"/>
</g>
</svg>
