<?xml version="1.0" encoding="utf-8"?>
<!-- Generator: Adobe Illustrator 25.0.1, SVG Export Plug-In . SVG Version: 6.00 Build 0)  -->
<svg version="1.1" id="Layer_1" xmlns="http://www.w3.org/2000/svg" xmlns:xlink="http://www.w3.org/1999/xlink" x="0px" y="0px"
	 viewBox="0 0 192 192" style="enable-background:new 0 0 192 192;" xml:space="preserve">
<style type="text/css">
	.st0{fill:#36A2EB;}
	.st1{fill:#FFCE56;}
	.st2{opacity:0.8;fill:#FE6184;enable-background:new    ;}
	.st3{fill:#E7E9ED;}
	.st4{enable-background:new    ;}
	.st5{fill:#724C35;}
	.st6{fill:#A9704E;}
	.st7{fill:#BD7E58;}
	.st8{clip-path:url(#SVGID_2_);enable-background:new    ;}
	.st9{fill:#A46D4C;}
	.st10{fill:#A06A4A;}
	.st11{fill:#9B6748;}
	.st12{fill:#966446;}
	.st13{fill:#926144;}
	.st14{fill:#8D5E42;}
	.st15{fill:#895B40;}
	.st16{fill:#84583D;}
	.st17{clip-path:url(#SVGID_4_);enable-background:new    ;}
	.st18{fill:#774F37;}
	.st19{fill:#7B5239;}
	.st20{fill:#80553B;}
	.st21{fill:#AD7451;}
	.st22{clip-path:url(#SVGID_6_);enable-background:new    ;}
	.st23{clip-path:url(#SVGID_8_);enable-background:new    ;}
</style>
<path class="st0" d="M161.3,96.6c-22.4,0.4-17.7,14.6-33.5,18.2c-16,3.6-18.5-39.1-34.6-39.1c-16,0-19.6,41.5-39.6,70l-0.6,0.8
	l43,24.8l65.2-37.7V96.6z"/>
<path class="st1" d="M161.3,95.3c-7.5-9.6-12.6-20.7-23.5-20.7c-19.3,0-14.2,31.5-35.6,31.5c-21.4,0-23.6-33.9-47.8-2
	c-7.7,10.2-13.9,21.5-18.8,32.2l60.5,34.9l65.2-37.7V95.3z"/>
<path class="st2" d="M30.8,108.3C38.2,88,41.3,71.6,55.3,71.6c21.4,0,26.5,60,44.8,53.9c18.3-6.1,16.3-38.7,44.8-38.7
	c5.4,0,11,3.3,16.4,8.7v38.1l-65.2,37.7l-65.2-37.7L30.8,108.3L30.8,108.3z"/>
<path class="st3" d="M96,176l-69.3-40V56L96,16l69.3,40v80L96,176z M34.8,131.3L96,166.6l61.2-35.3V60.7L96,25.4L34.8,60.7V131.3z"
	/>
<g>
	<g>
		<g class="st4">
			<g>
				<polygon class="st5" points="79.4,56.8 79.4,61.2 76.7,58.4 76.7,54 				"/>
			</g>
			<g>
				<polygon class="st6" points="65.9,62.4 65.9,66.7 59.8,66.9 59.8,62.5 				"/>
			</g>
			<g>
				<polygon class="st6" points="59.8,62.5 59.8,66.9 46.6,67.2 46.6,62.9 				"/>
			</g>
			<g>
				<polygon class="st5" points="46.6,62.9 46.6,67.2 46.2,63.8 46.2,59.5 				"/>
			</g>
			<g>
				<polygon class="st6" points="73.4,72.4 73.4,76.7 67,76.9 67,72.5 				"/>
			</g>
			<g>
				<polygon class="st5" points="67,72.5 67,76.9 66,67.6 66,63.3 				"/>
			</g>
			<g>
				<polygon class="st7" points="71.9,58.8 73.4,72.4 67,72.5 66,63.3 65.9,62.4 59.8,62.5 46.6,62.9 46.2,59.5 				"/>
			</g>
			<g class="st4">
				<defs>
					<path id="SVGID_1_" class="st4" d="M60.5,77.7l0-4.3c0-3.6,1.9-7.1,5.5-10l0,4.3C62.3,70.6,60.5,74.1,60.5,77.7z"/>
				</defs>
				<clipPath id="SVGID_2_">
					<use xlink:href="#SVGID_1_"  style="overflow:visible;"/>
				</clipPath>
				<g class="st8">
					<path class="st9" d="M66,63.3v4.3c-0.1,0.1-0.2,0.2-0.3,0.2v-4.3C65.8,63.4,65.9,63.4,66,63.3"/>
					<path class="st10" d="M65.7,63.5v4.3c-0.6,0.5-1.2,1-1.7,1.6v-4.3C64.5,64.6,65.1,64,65.7,63.5"/>
					<path class="st11" d="M64,65.1v4.3c-0.5,0.5-0.9,1-1.3,1.5v-4.3C63.1,66.1,63.6,65.6,64,65.1"/>
					<path class="st12" d="M62.8,66.6V71c-0.4,0.5-0.7,1-1,1.5v-4.3C62.1,67.6,62.4,67.1,62.8,66.6"/>
					<path class="st13" d="M61.8,68.2v4.3c-0.3,0.5-0.5,1-0.7,1.6v-4.3C61.3,69.2,61.5,68.7,61.8,68.2"/>
					<path class="st14" d="M61.1,69.7v4.3c-0.2,0.5-0.3,1.1-0.5,1.6v-4.3C60.7,70.8,60.9,70.3,61.1,69.7"/>
					<path class="st15" d="M60.6,71.4v4.3c-0.1,0.6-0.2,1.2-0.2,1.7v-4.3C60.5,72.5,60.5,71.9,60.6,71.4"/>
					<path class="st16" d="M60.5,73.1v4.3c0,0.1,0,0.2,0,0.2v-4.3C60.5,73.2,60.5,73.2,60.5,73.1"/>
				</g>
			</g>
			<g class="st4">
				<defs>
					<path id="SVGID_3_" class="st4" d="M131.6,73.6v4.3c0-0.4,0-0.7-0.1-1.1c-1.1-10-16.8-17.8-35.7-17.8c-0.6,0-1.2,0-1.8,0
						c-5.2,0.1-10.2,0.8-14.7,2.1l0-4.3c4.5-1.3,9.5-1.9,14.7-2.1c0.6,0,1.2,0,1.8,0c18.9,0,34.6,7.8,35.7,17.8
						C131.6,72.9,131.6,73.2,131.6,73.6z"/>
				</defs>
				<clipPath id="SVGID_4_">
					<use xlink:href="#SVGID_3_"  style="overflow:visible;"/>
				</clipPath>
				<g class="st17">
					<path class="st18" d="M131.6,73.6v4.3c0-0.4,0-0.7-0.1-1.1c-0.6-5.7-5.9-10.6-13.9-13.9v-4.3c7.9,3.2,13.3,8.2,13.9,13.9
						C131.6,72.9,131.6,73.2,131.6,73.6"/>
					<path class="st19" d="M117.7,58.6V63c-1.2-0.5-2.4-0.9-3.7-1.3v-4.3C115.3,57.7,116.5,58.2,117.7,58.6"/>
					<path class="st20" d="M114,57.3v4.3c-1-0.3-2.1-0.6-3.1-0.9v-4.3C111.9,56.7,113,57,114,57.3"/>
					<path class="st16" d="M110.9,56.4v4.3c-0.9-0.2-1.9-0.4-2.9-0.6v-4.3C108.9,56,109.9,56.2,110.9,56.4"/>
					<path class="st15" d="M108,55.8v4.3c-0.9-0.2-1.8-0.3-2.8-0.5v-4.3C106.1,55.5,107,55.6,108,55.8"/>
					<path class="st14" d="M105.2,55.4v4.3c-0.9-0.1-1.8-0.2-2.7-0.3V55C103.4,55.1,104.3,55.2,105.2,55.4"/>
					<path class="st13" d="M102.4,55v4.3c-0.9-0.1-1.8-0.2-2.8-0.2v-4.3C100.6,54.9,101.5,54.9,102.4,55"/>
					<path class="st12" d="M99.6,54.8v4.3c-1-0.1-1.9-0.1-2.9-0.1v-4.3C97.7,54.7,98.7,54.8,99.6,54.8"/>
					<path class="st11" d="M96.8,54.7v4.3c-0.3,0-0.6,0-0.9,0c-0.6,0-1.2,0-1.8,0c-0.1,0-0.3,0-0.4,0v-4.3c0.1,0,0.3,0,0.4,0
						c0.6,0,1.2,0,1.8,0C96.2,54.7,96.5,54.7,96.8,54.7"/>
					<path class="st10" d="M93.6,54.8v4.3c-1.2,0-2.4,0.1-3.6,0.2V55C91.2,54.9,92.4,54.8,93.6,54.8"/>
					<path class="st9" d="M90,55v4.3c-1.3,0.1-2.6,0.3-3.9,0.4v-4.3C87.4,55.2,88.7,55.1,90,55"/>
					<path class="st6" d="M86.1,55.4v4.3c-2,0.3-3.9,0.7-5.7,1.2v-4.3C82.2,56.1,84.1,55.7,86.1,55.4"/>
					<path class="st21" d="M80.4,56.6v4.3c-0.3,0.1-0.7,0.2-1,0.3v-4.3C79.7,56.7,80,56.6,80.4,56.6"/>
				</g>
			</g>
			<g class="st4">
				<defs>
					<path id="SVGID_5_" class="st4" d="M137.7,73.6l0,4.3c0,3.8-1.9,7.5-5.5,10.8l0-4.3C135.8,81.1,137.7,77.4,137.7,73.6z"/>
				</defs>
				<clipPath id="SVGID_6_">
					<use xlink:href="#SVGID_5_"  style="overflow:visible;"/>
				</clipPath>
				<g class="st22">
					<path class="st16" d="M137.7,73.6v4.3c0,0.1,0,0.2,0,0.3v-4.3C137.7,73.8,137.7,73.7,137.7,73.6"/>
					<path class="st15" d="M137.7,73.8v4.3c0,0.7-0.1,1.3-0.2,1.9v-4.3C137.6,75.1,137.7,74.5,137.7,73.8"/>
					<path class="st14" d="M137.5,75.8v4.3c-0.1,0.6-0.3,1.2-0.5,1.9v-4.3C137.2,77,137.3,76.4,137.5,75.8"/>
					<path class="st13" d="M136.9,77.7V82c-0.2,0.6-0.5,1.2-0.8,1.8v-4.3C136.4,78.9,136.7,78.3,136.9,77.7"/>
					<path class="st12" d="M136.1,79.5v4.3c-0.3,0.6-0.7,1.2-1.1,1.8v-4.3C135.4,80.7,135.8,80.1,136.1,79.5"/>
					<path class="st11" d="M135,81.3v4.3c-0.5,0.6-1,1.3-1.5,1.9v-4.3C134,82.6,134.5,81.9,135,81.3"/>
					<path class="st10" d="M133.4,83.2v4.3c-0.4,0.4-0.8,0.8-1.2,1.2v-4.3C132.6,84,133,83.6,133.4,83.2"/>
				</g>
			</g>
			<g>
				<polygon class="st6" points="132.2,84.4 132.2,88.7 126.2,88.9 126.2,84.5 				"/>
			</g>
			<g>
				<polygon class="st5" points="126.2,84.5 126.2,88.9 126.1,87.9 126.1,83.6 				"/>
			</g>
			<g>
				<path class="st7" d="M95.8,51.5c22,0,40.5,9.1,41.8,20.8c0.5,4.2-1.5,8.4-5.4,12l-6,0.2l-0.1-0.9c4-3.2,5.9-7.1,5.5-11.1
					c-1.1-10-16.8-17.8-35.7-17.8c-0.6,0-1.2,0-1.8,0c-5.2,0.1-10.2,0.8-14.7,2.1L76.7,54c5.3-1.4,11-2.3,17.1-2.5
					C94.4,51.6,95.1,51.5,95.8,51.5z"/>
			</g>
			<g>
				<polygon class="st6" points="145.9,87.4 145.9,91.7 120.2,92.4 120.2,88.1 				"/>
			</g>
			<g>
				<polygon class="st5" points="120.2,88.1 120.2,92.4 118.7,78.9 118.7,74.6 				"/>
			</g>
			<g>
				<polygon class="st7" points="125.1,74.4 126.1,83.6 126.2,84.5 132.2,84.4 145.5,84 145.9,87.4 120.2,88.1 118.7,74.6 				"/>
			</g>
			<g>
				<path class="st7" d="M65.9,62.4l0.1,0.9c-4,3.3-5.9,7.2-5.5,11.1c1.1,10,16.8,17.8,35.7,17.8c0.6,0,1.2,0,1.8,0
					c5.2-0.1,10.2-0.8,14.7-2.1l2.7,2.8c-5.3,1.5-11,2.3-17.1,2.5c-0.7,0-1.4,0-2.1,0c-22,0-40.5-9.1-41.8-20.8
					c-0.4-4.2,1.4-8.4,5.4-12L65.9,62.4z"/>
			</g>
			<g class="st4">
				<defs>
					<path id="SVGID_7_" class="st4" d="M54.4,77.7l0-4.3c0,0.4,0,0.8,0.1,1.2c1.2,11.7,19.8,20.8,41.8,20.8c0.7,0,1.4,0,2.1,0
						c6-0.2,11.8-0.9,17.1-2.5l0,4.3c-5.3,1.5-11,2.3-17.1,2.5c-0.7,0-1.4,0-2.1,0c-22,0-40.5-9.1-41.8-20.8
						C54.4,78.5,54.4,78.1,54.4,77.7z"/>
				</defs>
				<clipPath id="SVGID_8_">
					<use xlink:href="#SVGID_7_"  style="overflow:visible;"/>
				</clipPath>
				<g class="st23">
					<path class="st21" d="M115.4,92.9v4.3c-0.4,0.1-0.9,0.2-1.3,0.4v-4.3C114.6,93.1,115,93,115.4,92.9"/>
					<path class="st6" d="M114.1,93.2v4.3c-2.2,0.6-4.4,1-6.7,1.4v-4.3C109.7,94.3,111.9,93.8,114.1,93.2"/>
					<path class="st9" d="M107.4,94.6v4.3c-1.5,0.2-3,0.4-4.5,0.5v-4.3C104.4,95,105.9,94.8,107.4,94.6"/>
					<path class="st10" d="M102.9,95.1v4.3c-1.3,0.1-2.7,0.2-4,0.2v-4.3C100.2,95.3,101.5,95.2,102.9,95.1"/>
					<path class="st11" d="M98.8,95.3v4.3c-0.2,0-0.3,0-0.5,0c-0.7,0-1.4,0-2.1,0c-0.3,0-0.7,0-1,0v-4.3c0.3,0,0.7,0,1,0
						c0.7,0,1.4,0,2.1,0C98.5,95.3,98.7,95.3,98.8,95.3"/>
					<path class="st12" d="M95.3,95.4v4.3c-1.1,0-2.2-0.1-3.3-0.1v-4.3C93,95.3,94.1,95.4,95.3,95.4"/>
					<path class="st13" d="M91.9,95.3v4.3c-1.1-0.1-2.2-0.1-3.2-0.2V95C89.8,95.1,90.8,95.2,91.9,95.3"/>
					<path class="st14" d="M88.7,95v4.3c-1.1-0.1-2.1-0.2-3.2-0.4v-4.3C86.6,94.8,87.6,94.9,88.7,95"/>
					<path class="st15" d="M85.5,94.6V99c-1.1-0.2-2.2-0.3-3.3-0.5v-4.3C83.3,94.3,84.4,94.5,85.5,94.6"/>
					<path class="st16" d="M82.3,94.1v4.3c-1.2-0.2-2.3-0.5-3.4-0.7v-4.3C80,93.6,81.1,93.9,82.3,94.1"/>
					<path class="st20" d="M78.9,93.4v4.3c-1.3-0.3-2.5-0.6-3.7-1v-4.3C76.4,92.7,77.6,93.1,78.9,93.4"/>
					<path class="st19" d="M75.2,92.3v4.3c-1.5-0.5-3-1-4.4-1.6v-4.3C72.2,91.3,73.6,91.9,75.2,92.3"/>
					<path class="st18" d="M70.8,90.8v4.3c-9.3-3.8-15.6-9.6-16.3-16.2c0-0.4-0.1-0.8-0.1-1.2v-4.3c0,0.4,0,0.8,0.1,1.2
						C55.2,81.2,61.5,87,70.8,90.8"/>
				</g>
			</g>
		</g>
	</g>
</g>
</svg>
